HIERARCHY
ROOT Hips
{
	OFFSET 0.00000 0.00000 0.00000
	CHANNELS 6 Xposition Yposition Zposition Yrotation Zrotation Xrotation 
	JOINT Lumbar
	{
		OFFSET 0 0 0
		CHANNELS 3 Zrotation Xrotation Yrotation
		JOINT Neck
		{
			OFFSET 0.00 0.2701 0.00
			CHANNELS 3 Zrotation Xrotation Yrotation
			End Site
			{
				OFFSET 0.00 0.1379 0.00
			}
		}
		JOINT RightShoulder
		{
			OFFSET 0.0119 0.2289 0.1181
			CHANNELS 3 Zrotation Xrotation Yrotation
			JOINT RightElbow
			{
				OFFSET 0.00 -0.1475 0.00
				CHANNELS 2 Zrotation Yrotation
				JOINT RightWrist
				{
					OFFSET 0.00 -0.1605 0.00
					CHANNELS 2 Zrotation Xrotation
					End Site
					{
						OFFSET 0.0040 -0.1068 0.0006
					}
				}
			}
		}
		JOINT LeftShoulder
		{
			OFFSET 0.0119 0.2289 -0.1181
			CHANNELS 3 Zrotation Xrotation Yrotation
			JOINT LeftElbow
			{
				OFFSET 0.00 -0.1475 0.00
				CHANNELS 2 Zrotation Yrotation
				JOINT LeftWrist
				{
					OFFSET 0.00 -0.1605 0.00
					CHANNELS 2 Zrotation Xrotation
					End Site
					{
						OFFSET 0.0040 -0.1068 -0.0006
					}
				}
			}
		}
	}
	JOINT RightHip
	{
		OFFSET 0.0316 -0.0424 0.0458
		CHANNELS 3 Zrotation Xrotation Yrotation
		JOINT RightKnee
		{
			OFFSET 0.00 -0.2438 0.00
			CHANNELS 1 Zrotation
			JOINT RightAnkle
			{
				OFFSET 0.00 -0.2449 0.00
				CHANNELS 3 Zrotation Xrotation Yrotation
				End Site
				{
					OFFSET 0.1237 -0.0542 0.0051
				}
			}
		}
	}
	JOINT LeftHip
	{
		OFFSET 0.0316 -0.0424 -0.0458
		CHANNELS 3 Zrotation Xrotation Yrotation
		JOINT LeftKnee
		{
			OFFSET 0.00 -0.2438 0.00
			CHANNELS 1 Zrotation
			JOINT LeftAnkle
			{
				OFFSET 0.00 -0.2449 0.00
				CHANNELS 3 Zrotation Xrotation Yrotation
				End Site
				{
					OFFSET 0.1237 -0.0542 -0.0051
				}
			}
		}
	}
}
MOTION
Frames: 11
Frame Time: 0.02
0.36252 -0.01446 -0.61769 160.9968 -29.20585 -4.5743 37.34695 0.23792 -1.95078 -13.70134 -0.65324 -0.83079 8.65438 -20.88491 34.80409 101.77669 87.42528 5.43825 -1.09221 8.43346 22.97726 -41.58143 104.71511 -84.68144 0.77545 0.42084 42.41719 -0.36828 -9.18541 -36.86574 -8.69995 -5.07209 -3.45493 36.35704 13.88882 1.94727 -25.45984 -9.38125 4.313 3.05553
0.3613 -0.01429 -0.61653 161.15117 -29.05122 -4.7742 37.30944 0.30784 -2.29549 -13.79142 -0.68894 -0.83079 7.97845 -20.35598 34.32347 102.19178 86.79371 4.20666 -0.56656 8.22284 21.9161 -40.47228 104.87672 -83.44783 -0.35999 0.86643 42.73386 -0.2683 -9.28182 -37.40978 -8.62041 -4.99247 -3.40555 36.28408 13.76693 1.29887 -25.72394 -9.39904 4.37253 3.09055
0.35997 -0.01412 -0.61565 161.29047 -28.91779 -4.98566 37.31204 0.40222 -2.68403 -13.96584 -0.71874 -0.83079 7.1541 -19.94884 34.01641 102.65422 88.19583 3.94037 0.32737 7.63506 21.1336 -39.33211 104.87721 -83.66082 -0.96641 1.22594 43.09479 -0.10736 -9.31037 -37.88577 -8.51844 -4.88846 -3.342 36.21544 13.6291 0.44723 -25.97122 -9.44796 4.45734 3.14111
0.3587 -0.01395 -0.61466 161.44121 -28.77324 -5.18694 37.28966 0.48458 -3.05738 -14.09256 -0.7531 -0.83079 6.40332 -19.46909 33.62838 103.08261 88.54019 3.20631 0.99543 7.23426 20.22328 -38.24258 104.9373 -83.18472 -1.83191 1.6276 43.43251 0.02649 -9.3571 -38.37081 -8.42979 -4.79695 -3.2858 36.14049 13.50515 -0.27647 -26.22306 -9.47878 4.52662 3.18208
0.35741 -0.01375 -0.61361 161.56671 -28.63338 -5.40973 37.29605 0.57298 -3.41211 -14.263 -0.77968 -0.83079 5.60712 -19.0546 33.214 103.55841 89.32636 2.53709 1.89235 6.72277 19.32262 -36.95933 105.05427 -82.80044 -2.64057 2.02232 43.78166 0.15842 -9.464 -38.94978 -8.32641 -4.69816 -3.2249 36.07868 13.35403 -1.15071 -26.48646 -9.52711 4.61337 3.23399
0.35612 -0.01363 -0.61276 161.74374 -28.48935 -5.58971 37.25234 0.65388 -3.81494 -14.36151 -0.8209 -0.83079 4.88173 -18.53799 32.90626 103.9467 89.72685 1.98244 2.41127 6.37109 18.46594 -36.08513 105.01519 -82.58706 -3.43162 2.40793 44.1182 0.30807 -9.42666 -39.31523 -8.2491 -4.60949 -3.17092 35.99202 13.25514 -1.75974 -26.7216 -9.54622 4.66956 3.26669
0.3549 -0.01372 -0.61235 162.06332 -28.32989 -5.6545 37.0558 0.70672 -4.34714 -14.23163 -0.90539 -0.83079 4.34007 -17.6875 32.88823 104.10696 88.50887 1.53544 1.74327 6.53407 17.66748 -36.37774 104.57696 -82.46043 -4.32593 2.80012 44.40893 0.49782 -9.01054 -39.12133 -8.24764 -4.55139 -3.13756 35.84265 13.30721 -1.58528 -26.89204 -9.47509 4.6354 3.24253
0.35369 -0.01389 -0.61214 162.43675 -28.16597 -5.67463 36.80853 0.75115 -4.92484 -14.02712 -1.00457 -0.83079 3.88619 -16.7364 32.9705 104.17346 86.86096 1.17639 0.69378 6.8807 16.903 -37.08458 103.98743 -82.46661 -5.21297 3.18342 44.68607 0.70201 -8.45055 -38.71235 -8.2736 -4.50493 -3.11205 35.66814 13.41164 -1.13795 -27.03319 -9.37376 4.56959 3.1985
0.35247 -0.01403 -0.61186 162.78852 -28.00289 -5.7114 36.58704 0.7999 -5.47679 -13.86245 -1.09608 -0.83079 3.42547 -15.84475 32.98701 104.26808 85.46145 0.76444 -0.14416 7.16171 16.11795 -37.58698 103.47381 -82.43887 -6.08676 3.5631 44.96926 0.8958 -7.95305 -38.39288 -8.2884 -4.45562 -3.08444 35.50077 13.49037 -0.81529 -27.1821 -9.28734 4.51799 3.16344
0.35125 -0.01417 -0.61153 163.12766 -27.84357 -5.7642 36.35416 0.84716 -6.05149 -13.67709 -1.19149 -0.83079 2.81863 -14.89325 33.09201 104.42732 83.90137 0.4293 -1.12998 7.35301 15.36072 -38.15158 102.92954 -82.35195 -7.01556 3.97226 45.25294 1.10853 -7.46378 -38.10575 -8.29732 -4.39566 -3.05045 35.3495 13.57721 -0.49339 -27.35401 -9.19683 4.4677 3.12895
0.35004 -0.01431 -0.61134 163.50628 -27.67752 -5.77261 36.13403 0.89558 -6.5893 -13.51435 -1.28247 -0.83079 2.54035 -14.04851 33.03694 104.42668 82.55455 -0.0443 -1.90401 7.78041 14.55453 -38.69097 102.40877 -82.39775 -7.83087 4.31895 45.53376 1.28365 -6.92624 -37.70113 -8.32477 -4.36031 -3.03138 35.16124 13.65902 -0.1069 -27.47103 -9.1075 4.4072 3.08862
